<svg width="70" height="70" viewBox="0 0 70 70" fill="none" xmlns="http://www.w3.org/2000/svg">
<g clip-path="url(#clip0_1219_419)">
<path opacity="0.12" d="M35 61.25C49.4975 61.25 61.25 49.4975 61.25 35C61.25 20.5025 49.4975 8.75 35 8.75C20.5025 8.75 8.75 20.5025 8.75 35C8.75 49.4975 20.5025 61.25 35 61.25Z" fill="white"/>
<path d="M28.4375 22.9688H41.5625L33.9062 33.9062C35.1685 33.9064 36.4112 34.2187 37.5236 34.8153C38.636 35.4118 39.5836 36.2742 40.2822 37.3255C40.9807 38.3769 41.4085 39.5847 41.5274 40.8413C41.6463 42.098 41.4526 43.3645 40.9637 44.5283C40.4747 45.692 39.7056 46.7168 38.7248 47.5114C37.744 48.306 36.582 48.8458 35.3422 49.0827C34.1023 49.3196 32.8232 49.2463 31.6185 48.8693C30.4138 48.4923 29.3211 47.8233 28.4375 46.9219" stroke="white" stroke-width="3" stroke-linecap="round" stroke-linejoin="round"/>
<path d="M35 61.25C49.4975 61.25 61.25 49.4975 61.25 35C61.25 20.5025 49.4975 8.75 35 8.75C20.5025 8.75 8.75 20.5025 8.75 35C8.75 49.4975 20.5025 61.25 35 61.25Z" stroke="white" stroke-width="3" stroke-linecap="round" stroke-linejoin="round"/>
</g>
<defs>
<clipPath id="clip0_1219_419">
<rect width="70" height="70" fill="white"/>
</clipPath>
</defs>
</svg>
