<svg width="70" height="70" viewBox="0 0 70 70" fill="none" xmlns="http://www.w3.org/2000/svg">
<g clip-path="url(#clip0_1219_414)">
<path opacity="0.12" d="M35 61.25C49.4975 61.25 61.25 49.4975 61.25 35C61.25 20.5025 49.4975 8.75 35 8.75C20.5025 8.75 8.75 20.5025 8.75 35C8.75 49.4975 20.5025 61.25 35 61.25Z" fill="white"/>
<path d="M41.5625 48.125H28.4375L40.2418 32.386C40.8108 31.63 41.2096 30.76 41.4109 29.8356C41.6122 28.9111 41.6112 27.9541 41.408 27.03C41.2049 26.106 40.8043 25.2368 40.2338 24.4821C39.6632 23.7273 38.9363 23.1048 38.1027 22.6573C37.2691 22.2098 36.3486 21.9479 35.4043 21.8894C34.46 21.8309 33.5142 21.9773 32.6317 22.3185C31.7493 22.6598 30.9511 23.1878 30.2918 23.8664C29.6325 24.545 29.1277 25.3581 28.8121 26.25" stroke="white" stroke-width="3" stroke-linecap="round" stroke-linejoin="round"/>
<path d="M35 61.25C49.4975 61.25 61.25 49.4975 61.25 35C61.25 20.5025 49.4975 8.75 35 8.75C20.5025 8.75 8.75 20.5025 8.75 35C8.75 49.4975 20.5025 61.25 35 61.25Z" stroke="white" stroke-width="3" stroke-linecap="round" stroke-linejoin="round"/>
</g>
<defs>
<clipPath id="clip0_1219_414">
<rect width="70" height="70" fill="white"/>
</clipPath>
</defs>
</svg>
