<svg width="26" height="26" viewBox="0 0 26 26" fill="none" xmlns="http://www.w3.org/2000/svg">
<path d="M5.12833 11.0358C7.16833 15.045 10.455 18.3175 14.4642 20.3717L17.5808 17.255C17.9633 16.8725 18.53 16.745 19.0258 16.915C20.6125 17.4392 22.3267 17.7225 24.0833 17.7225C24.8625 17.7225 25.5 18.36 25.5 19.1392V24.0833C25.5 24.8625 24.8625 25.5 24.0833 25.5C10.7808 25.5 0 14.7192 0 1.41667C0 0.6375 0.6375 0 1.41667 0H6.375C7.15417 0 7.79167 0.6375 7.79167 1.41667C7.79167 3.1875 8.075 4.8875 8.59917 6.47417C8.755 6.97 8.64167 7.5225 8.245 7.91917L5.12833 11.0358Z" fill="white"/>
</svg>
